<svg width="200" height="50" viewBox="0 0 272 50" fill="none" xmlns="http://www.w3.org/2000/svg">
    <path d="M54.86 22.7499C54.84 21.6499 54.58 20.4999 54.18 19.4699C51.99 13.8399 49.69 8.24992 47.51 2.60992C46.83 0.839919 45.82 0.0599191 43.86 0.0699191C33.1 0.139919 22.34 0.10992 11.58 0.0999198C10.1 0.0999198 8.32999 0.119919 8.33999 2.02992C8.34999 4.35992 10.46 3.41992 11.64 3.42992C21.37 3.51992 31.12 3.45992 40.85 3.50992C41.95 3.51992 43.32 2.95992 44.21 4.48992C43.22 5.37992 42.05 5.00992 41.01 5.01992C30.76 5.04992 20.51 5.05992 10.27 5.01992C8.15999 5.00992 5.91999 5.17992 6.10999 7.77992C6.26999 9.97992 8.56999 8.94992 9.86999 8.95992C20.83 9.05992 31.8 8.99992 42.76 9.04992C43.86 9.05992 45.24 8.49992 46.06 9.96992C45.12 11.0099 43.92 10.5499 42.88 10.5499C31.51 10.5899 20.13 10.5699 8.75999 10.5799C7.83999 10.5799 6.90999 10.5599 5.99999 10.6499C4.30999 10.8299 3.75999 12.1999 3.79999 13.5099C3.83999 15.0699 5.33999 14.5099 6.22999 14.5199C11.45 14.5799 16.68 14.5299 21.91 14.5799C22.96 14.5899 24.18 14.1699 25.2 15.4499C24.2 16.4899 23.12 16.0899 22.16 16.0999C17.04 16.1399 11.91 16.1199 6.78999 16.1199C2.36999 16.1199 0.839989 17.2999 0.659989 21.7499C0.429989 27.3699 0.609989 33.0199 0.589989 38.6499C0.579989 40.3599 1.45999 41.0399 3.07999 40.9899C3.99999 40.9599 4.92999 41.0999 5.83999 40.9799C14.49 39.8299 22.02 42.2399 29.1 47.3199C34.75 51.3699 35.12 50.9999 35.18 44.0799C35.2 41.5899 36.16 40.8999 38.48 40.9599C42.99 41.0799 47.5 40.9399 52.01 41.0099C54.12 41.0499 54.96 40.1999 54.93 38.1099C54.85 32.9899 54.93 27.8699 54.86 22.7499ZM46.1 26.3099C46.1 26.8299 45.69 27.2499 45.17 27.2499H14.59C14.07 27.2499 13.66 27.6599 13.66 28.1799V28.2999C13.66 28.8199 14.07 29.2399 14.59 29.2399H45.17C45.69 29.2399 46.1 29.6499 46.1 30.1699V32.6399C46.1 33.1599 45.69 33.5799 45.17 33.5799H14.59C14.07 33.5799 13.66 33.9899 13.66 34.5099C13.66 35.0199 13.24 35.4399 12.72 35.4399H10.25C9.73999 35.4399 9.31999 35.0199 9.31999 34.5099V22.9199H45.17C45.69 22.9199 46.1 23.3399 46.1 23.8499V26.3099Z" fill="#074173"/>
    <path d="M74.94 39.3402H70.64V12.9502H85.55V16.6002H74.94V24.8302H84.87V28.4802H74.94V39.3402Z" fill="#1D1D1B"/>
    <path d="M97.73 18.98C100.26 18.98 102.17 19.54 103.46 20.66C104.75 21.78 105.4 23.52 105.4 25.89V39.34H102.39L101.56 36.51H101.42C100.85 37.23 100.27 37.83 99.67 38.31C99.07 38.79 98.38 39.14 97.59 39.37C96.81 39.6 95.85 39.71 94.72 39.71C93.52 39.71 92.45 39.49 91.51 39.05C90.57 38.61 89.83 37.94 89.3 37.04C88.76 36.14 88.5 35 88.5 33.61C88.5 31.55 89.27 30.01 90.8 28.97C92.33 27.94 94.65 27.36 97.76 27.26L101.21 27.13V26.08C101.21 24.71 100.89 23.73 100.25 23.14C99.61 22.55 98.71 22.26 97.54 22.26C96.54 22.26 95.57 22.4 94.63 22.69C93.69 22.98 92.78 23.33 91.89 23.74L90.5 20.74C91.49 20.22 92.6 19.8 93.85 19.48C95.09 19.14 96.39 18.98 97.73 18.98ZM101.18 29.79L98.62 29.9C96.5 29.97 95.02 30.33 94.16 30.97C93.31 31.61 92.88 32.5 92.88 33.63C92.88 34.62 93.17 35.34 93.76 35.79C94.35 36.24 95.13 36.47 96.09 36.47C97.56 36.47 98.77 36.05 99.74 35.22C100.7 34.38 101.18 33.16 101.18 31.55V29.79Z" fill="#1D1D1B"/>
    <path d="M118.04 39.7C115.67 39.7 113.77 38.83 112.33 37.09C110.89 35.35 110.17 32.79 110.17 29.39C110.17 25.96 110.9 23.37 112.36 21.61C113.82 19.85 115.75 18.98 118.14 18.98C119.14 18.98 120.02 19.12 120.77 19.39C121.53 19.66 122.18 20.02 122.74 20.48C123.29 20.94 123.76 21.45 124.13 22.01H124.33C124.27 21.64 124.2 21.1 124.13 20.39C124.06 19.68 124.02 19.03 124.02 18.43V11.25H128.28V39.33H124.96L124.2 36.62H124.02C123.66 37.19 123.2 37.7 122.66 38.17C122.11 38.64 121.46 39.01 120.7 39.28C119.95 39.57 119.06 39.7 118.04 39.7ZM119.25 36.25C121.06 36.25 122.33 35.73 123.09 34.68C123.85 33.63 124.22 32.06 124.24 29.97V29.41C124.24 27.17 123.88 25.46 123.17 24.27C122.45 23.08 121.14 22.48 119.23 22.48C117.7 22.48 116.54 23.09 115.74 24.32C114.94 25.55 114.54 27.26 114.54 29.46C114.54 31.66 114.94 33.34 115.74 34.5C116.54 35.66 117.69 36.25 119.25 36.25Z" fill="#1D1D1B"/>
    <path d="M141.05 39.7C138.68 39.7 136.78 38.83 135.34 37.09C133.9 35.35 133.18 32.79 133.18 29.39C133.18 25.96 133.91 23.37 135.37 21.61C136.83 19.85 138.76 18.98 141.15 18.98C142.15 18.98 143.03 19.12 143.79 19.39C144.55 19.66 145.2 20.02 145.76 20.48C146.32 20.94 146.78 21.45 147.15 22.01H147.35C147.29 21.64 147.22 21.1 147.15 20.39C147.08 19.68 147.04 19.03 147.04 18.43V11.25H151.3V39.33H147.98L147.22 36.62H147.04C146.68 37.19 146.22 37.7 145.68 38.17C145.13 38.64 144.48 39.01 143.72 39.28C142.96 39.57 142.07 39.7 141.05 39.7ZM142.26 36.25C144.06 36.25 145.34 35.73 146.09 34.68C146.84 33.63 147.22 32.06 147.24 29.97V29.41C147.24 27.17 146.88 25.46 146.17 24.27C145.46 23.08 144.14 22.48 142.23 22.48C140.7 22.48 139.54 23.09 138.74 24.32C137.94 25.55 137.54 27.26 137.54 29.46C137.54 31.66 137.94 33.34 138.74 34.5C139.53 35.67 140.71 36.25 142.26 36.25Z" fill="#1D1D1B"/>
    <path d="M165.32 18.98C167.1 18.98 168.63 19.35 169.9 20.08C171.18 20.81 172.16 21.86 172.84 23.2C173.52 24.54 173.87 26.16 173.87 28.04V30.31H160.53C160.58 32.25 161.1 33.74 162.09 34.79C163.08 35.84 164.48 36.36 166.27 36.36C167.54 36.36 168.69 36.24 169.71 35.99C170.73 35.74 171.78 35.38 172.86 34.9V38.35C171.86 38.82 170.85 39.16 169.81 39.38C168.77 39.6 167.54 39.71 166.09 39.71C164.13 39.71 162.4 39.33 160.91 38.57C159.42 37.81 158.26 36.68 157.43 35.16C156.6 33.64 156.18 31.76 156.18 29.49C156.18 27.25 156.56 25.35 157.32 23.79C158.08 22.23 159.14 21.04 160.51 20.22C161.9 19.39 163.5 18.98 165.32 18.98ZM165.32 22.18C163.99 22.18 162.9 22.61 162.08 23.48C161.26 24.35 160.77 25.62 160.63 27.29H169.71C169.7 26.29 169.53 25.41 169.21 24.65C168.89 23.89 168.41 23.28 167.78 22.85C167.14 22.4 166.32 22.18 165.32 22.18Z" fill="#1D1D1B"/>
    <path d="M185.36 39.7C182.99 39.7 181.09 38.83 179.65 37.09C178.21 35.35 177.49 32.79 177.49 29.39C177.49 25.96 178.22 23.37 179.68 21.61C181.14 19.85 183.07 18.98 185.46 18.98C186.46 18.98 187.34 19.12 188.1 19.39C188.86 19.66 189.51 20.02 190.07 20.48C190.63 20.94 191.09 21.45 191.46 22.01H191.66C191.6 21.64 191.53 21.1 191.46 20.39C191.39 19.68 191.35 19.03 191.35 18.43V11.25H195.61V39.33H192.29L191.53 36.62H191.35C190.99 37.19 190.53 37.7 189.99 38.17C189.44 38.64 188.79 39.01 188.03 39.28C187.27 39.57 186.38 39.7 185.36 39.7ZM186.57 36.25C188.37 36.25 189.65 35.73 190.4 34.68C191.15 33.63 191.53 32.06 191.55 29.97V29.41C191.55 27.17 191.19 25.46 190.48 24.27C189.77 23.08 188.45 22.48 186.54 22.48C185.01 22.48 183.85 23.09 183.05 24.32C182.25 25.55 181.85 27.26 181.85 29.46C181.85 31.66 182.25 33.34 183.05 34.5C183.84 35.67 185.01 36.25 186.57 36.25Z" fill="#1D1D1B"/>
    <path d="M217.34 32.1598C217.34 33.7198 216.96 35.0698 216.19 36.1998C215.43 37.3298 214.33 38.1998 212.91 38.7998C211.48 39.3998 209.78 39.6998 207.81 39.6998C206.85 39.6998 205.93 39.6498 205.05 39.5398C204.17 39.4298 203.34 39.2698 202.57 39.0598C201.79 38.8498 201.08 38.5898 200.43 38.2898V34.2098C201.51 34.6798 202.72 35.0998 204.04 35.4798C205.36 35.8598 206.71 36.0498 208.08 36.0498C209.2 36.0498 210.12 35.8998 210.86 35.6098C211.59 35.3198 212.14 34.8898 212.51 34.3498C212.88 33.8098 213.06 33.1598 213.06 32.4298C213.06 31.6498 212.85 30.9898 212.43 30.4498C212.01 29.9098 211.37 29.4198 210.53 28.9598C209.68 28.4998 208.61 28.0198 207.33 27.4998C206.46 27.1598 205.64 26.7698 204.86 26.3298C204.08 25.8798 203.38 25.3598 202.77 24.7598C202.16 24.1598 201.67 23.4398 201.31 22.6098C200.95 21.7798 200.77 20.8098 200.77 19.6998C200.77 18.2098 201.13 16.9298 201.85 15.8698C202.57 14.8098 203.59 13.9898 204.89 13.4198C206.19 12.8498 207.72 12.5698 209.47 12.5698C210.85 12.5698 212.16 12.7198 213.38 13.0098C214.6 13.2998 215.8 13.7098 216.98 14.2298L215.61 17.7298C214.52 17.2798 213.46 16.9298 212.45 16.6598C211.44 16.3898 210.4 16.2498 209.35 16.2498C208.43 16.2498 207.66 16.3898 207.02 16.6698C206.38 16.9498 205.9 17.3398 205.57 17.8398C205.24 18.3398 205.07 18.9298 205.07 19.6098C205.07 20.3898 205.26 21.0398 205.64 21.5598C206.02 22.0798 206.61 22.5498 207.41 22.9898C208.21 23.4198 209.24 23.8998 210.51 24.4298C211.97 25.0298 213.2 25.6598 214.22 26.3298C215.24 26.9898 216.02 27.7798 216.56 28.6998C217.07 29.6198 217.34 30.7698 217.34 32.1598Z" fill="#1D1D1B"/>
    <path d="M233.82 39.3402L226.22 17.3202H226.06C226.1 17.8102 226.14 18.4802 226.19 19.3302C226.24 20.1802 226.28 21.0902 226.32 22.0702C226.36 23.0502 226.37 23.9802 226.37 24.8602V39.3302H222.44V12.9502H228.52L235.83 34.0102H235.94L243.48 12.9502H249.56V39.3402H245.43V24.6502C245.43 23.8402 245.44 22.9802 245.47 22.0402C245.49 21.1102 245.53 20.2202 245.57 19.3802C245.61 18.5402 245.65 17.8602 245.69 17.3602H245.53L237.66 39.3402H233.82Z" fill="#1D1D1B"/>
    <path d="M271.72 32.1598C271.72 33.7198 271.34 35.0698 270.57 36.1998C269.81 37.3298 268.71 38.1998 267.29 38.7998C265.86 39.3998 264.16 39.6998 262.19 39.6998C261.23 39.6998 260.31 39.6498 259.43 39.5398C258.55 39.4298 257.72 39.2698 256.95 39.0598C256.17 38.8498 255.46 38.5898 254.81 38.2898V34.2098C255.89 34.6798 257.1 35.0998 258.42 35.4798C259.74 35.8598 261.09 36.0498 262.46 36.0498C263.58 36.0498 264.5 35.8998 265.24 35.6098C265.97 35.3198 266.52 34.8898 266.89 34.3498C267.26 33.8098 267.44 33.1598 267.44 32.4298C267.44 31.6498 267.23 30.9898 266.81 30.4498C266.39 29.9098 265.75 29.4198 264.91 28.9598C264.06 28.4998 262.99 28.0198 261.71 27.4998C260.84 27.1598 260.02 26.7698 259.24 26.3298C258.46 25.8798 257.76 25.3598 257.15 24.7598C256.54 24.1598 256.05 23.4398 255.69 22.6098C255.33 21.7798 255.15 20.8098 255.15 19.6998C255.15 18.2098 255.51 16.9298 256.23 15.8698C256.95 14.8098 257.97 13.9898 259.27 13.4198C260.57 12.8498 262.1 12.5698 263.85 12.5698C265.23 12.5698 266.54 12.7198 267.76 13.0098C268.98 13.2998 270.18 13.7098 271.36 14.2298L269.99 17.7298C268.9 17.2798 267.84 16.9298 266.83 16.6598C265.82 16.3898 264.78 16.2498 263.73 16.2498C262.81 16.2498 262.04 16.3898 261.4 16.6698C260.76 16.9498 260.28 17.3398 259.95 17.8398C259.62 18.3398 259.45 18.9298 259.45 19.6098C259.45 20.3898 259.64 21.0398 260.02 21.5598C260.4 22.0798 260.99 22.5498 261.79 22.9898C262.59 23.4198 263.62 23.8998 264.89 24.4298C266.35 25.0298 267.58 25.6598 268.6 26.3298C269.62 26.9898 270.4 27.7798 270.94 28.6998C271.45 29.6198 271.72 30.7698 271.72 32.1598Z" fill="#1D1D1B"/>
</svg>
